<svg width="125" height="20" viewBox="0 0 125 20" fill="none" xmlns="http://www.w3.org/2000/svg">
<path d="M7.72266 9.43579C7.72266 10.3928 7.55273 11.1956 7.21289 11.844C6.87695 12.4924 6.37695 12.9807 5.71289 13.3088C5.05273 13.637 4.23438 13.801 3.25781 13.801H1.20703V5.23462H3.52734C4.44141 5.23462 5.20898 5.39478 5.83008 5.71509C6.45117 6.0354 6.92188 6.50806 7.24219 7.13306C7.5625 7.75415 7.72266 8.52173 7.72266 9.43579ZM7.08984 9.45923C7.08984 8.64282 6.95703 7.96118 6.69141 7.41431C6.42578 6.86743 6.01953 6.45728 5.47266 6.18384C4.92578 5.90649 4.23242 5.76782 3.39258 5.76782H1.81055V13.2678H3.22852C4.52148 13.2678 5.48828 12.9514 6.12891 12.3186C6.76953 11.6819 7.08984 10.7288 7.08984 9.45923ZM11.9414 7.30884C12.4844 7.30884 12.9355 7.43579 13.2949 7.6897C13.6582 7.9436 13.9277 8.29126 14.1035 8.73267C14.2832 9.17407 14.373 9.67993 14.373 10.2502V10.678H9.77344C9.77344 11.553 9.97461 12.2249 10.377 12.6936C10.7832 13.1624 11.3633 13.3967 12.1172 13.3967C12.5117 13.3967 12.8535 13.3655 13.1426 13.303C13.4355 13.2366 13.7598 13.1252 14.1152 12.969V13.5139C13.8027 13.6545 13.4902 13.7561 13.1777 13.8186C12.8652 13.885 12.5059 13.9182 12.0996 13.9182C11.4551 13.9182 10.9141 13.7854 10.4766 13.5198C10.043 13.2502 9.71484 12.8713 9.49219 12.3831C9.27344 11.8948 9.16406 11.3245 9.16406 10.6721C9.16406 10.0354 9.26953 9.46313 9.48047 8.95532C9.69531 8.44751 10.0078 8.04712 10.418 7.75415C10.832 7.45728 11.3398 7.30884 11.9414 7.30884ZM11.9355 7.8186C11.3262 7.8186 10.832 8.02173 10.4531 8.42798C10.0781 8.83032 9.85742 9.41235 9.79102 10.1741H13.7578C13.7578 9.70923 13.6914 9.29907 13.5586 8.9436C13.4258 8.58813 13.2246 8.31274 12.9551 8.11743C12.6895 7.91821 12.3496 7.8186 11.9355 7.8186ZM20.1094 12.1311C20.1094 12.51 20.0137 12.8342 19.8223 13.1038C19.6348 13.3694 19.3594 13.5725 18.9961 13.7131C18.6328 13.8499 18.1855 13.9182 17.6543 13.9182C17.2129 13.9182 16.8184 13.8792 16.4707 13.801C16.123 13.7229 15.832 13.6272 15.5977 13.5139V12.928C15.8906 13.0725 16.2148 13.1897 16.5703 13.2795C16.9258 13.3694 17.291 13.4143 17.666 13.4143C18.3223 13.4143 18.7949 13.303 19.084 13.0803C19.373 12.8577 19.5176 12.553 19.5176 12.1663C19.5176 11.9124 19.4453 11.7034 19.3008 11.5393C19.1602 11.3713 18.957 11.2268 18.6914 11.1057C18.4258 10.9846 18.1055 10.8616 17.7305 10.7366C17.3398 10.6038 16.9922 10.4729 16.6875 10.344C16.3867 10.2112 16.1504 10.0374 15.9785 9.82251C15.8066 9.60376 15.7207 9.30688 15.7207 8.93188C15.7207 8.42017 15.9258 8.02173 16.3359 7.73657C16.7461 7.45142 17.2969 7.30884 17.9883 7.30884C18.3711 7.30884 18.7266 7.34595 19.0547 7.42017C19.3867 7.49048 19.6875 7.58228 19.957 7.69556L19.7461 8.19946C19.5039 8.08618 19.2246 7.99438 18.9082 7.92407C18.5918 7.85376 18.2754 7.8186 17.959 7.8186C17.4395 7.8186 17.0332 7.9104 16.7402 8.09399C16.4473 8.27759 16.3008 8.54712 16.3008 8.90259C16.3008 9.17603 16.3711 9.39087 16.5117 9.54712C16.6523 9.69946 16.8535 9.82837 17.1152 9.93384C17.377 10.0354 17.6875 10.1487 18.0469 10.2737C18.418 10.4026 18.7598 10.5374 19.0723 10.678C19.3887 10.8186 19.6406 11.0002 19.8281 11.2229C20.0156 11.4456 20.1094 11.7483 20.1094 12.1311ZM22.3066 7.43188V13.801H21.7148V7.43188H22.3066ZM22.0195 5.07642C22.168 5.07642 22.2773 5.12134 22.3477 5.21118C22.418 5.29712 22.4531 5.41431 22.4531 5.56274C22.4531 5.71118 22.418 5.82837 22.3477 5.91431C22.2773 6.00024 22.168 6.04321 22.0195 6.04321C21.8789 6.04321 21.7734 6.00024 21.7031 5.91431C21.6328 5.82837 21.5977 5.71118 21.5977 5.56274C21.5977 5.41431 21.6328 5.29712 21.7031 5.21118C21.7734 5.12134 21.8789 5.07642 22.0195 5.07642ZM26.1211 16.6838C25.3203 16.6838 24.6973 16.5295 24.252 16.2209C23.8105 15.9124 23.5898 15.4807 23.5898 14.926C23.5898 14.4963 23.7246 14.1252 23.9941 13.8127C24.2637 13.5042 24.6289 13.3186 25.0898 13.2561C24.9062 13.1702 24.7559 13.053 24.6387 12.9045C24.5254 12.7561 24.4688 12.5842 24.4688 12.3889C24.4688 12.1702 24.5371 11.967 24.6738 11.7795C24.8105 11.5881 25.0156 11.4124 25.2891 11.2522C24.9219 11.1194 24.6328 10.8948 24.4219 10.5784C24.2109 10.2581 24.1055 9.87329 24.1055 9.42407C24.1055 8.99438 24.1973 8.62134 24.3809 8.30493C24.5645 7.98853 24.8242 7.74438 25.1602 7.57251C25.5 7.39673 25.9004 7.30884 26.3613 7.30884C26.502 7.30884 26.6289 7.31274 26.7422 7.32056C26.8594 7.32837 26.9668 7.34204 27.0645 7.36157C27.1621 7.3772 27.25 7.39868 27.3281 7.42603H29.3848V7.8479L28.0723 7.93579C28.2441 8.14282 28.373 8.36743 28.459 8.60962C28.5449 8.8479 28.5879 9.09985 28.5879 9.36548C28.5879 9.99829 28.3887 10.5002 27.9902 10.8713C27.5918 11.2424 27.0371 11.428 26.3262 11.428C26.1309 11.428 25.9395 11.4104 25.752 11.3752C25.5137 11.5159 25.332 11.6584 25.207 11.803C25.082 11.9436 25.0195 12.1194 25.0195 12.3303C25.0195 12.4631 25.0586 12.5725 25.1367 12.6584C25.2148 12.7405 25.3281 12.8049 25.4766 12.8518C25.625 12.8948 25.8066 12.9163 26.0215 12.9163H27.1406C27.832 12.9163 28.3613 13.0569 28.7285 13.3381C29.0957 13.6194 29.2793 14.0334 29.2793 14.5803C29.2793 15.2483 29.0039 15.7659 28.4531 16.1331C27.9062 16.5002 27.1289 16.6838 26.1211 16.6838ZM26.1621 16.1858C26.7207 16.1858 27.1855 16.1252 27.5566 16.0042C27.9316 15.8831 28.2129 15.7034 28.4004 15.4651C28.5879 15.2307 28.6816 14.9397 28.6816 14.592C28.6816 14.3069 28.6133 14.0862 28.4766 13.9299C28.3398 13.7737 28.1465 13.6663 27.8965 13.6077C27.6465 13.5452 27.3516 13.5139 27.0117 13.5139H25.9453C25.6055 13.5139 25.3027 13.5608 25.0371 13.6545C24.7715 13.7444 24.5645 13.8889 24.416 14.0881C24.2715 14.2874 24.1992 14.553 24.1992 14.885C24.1992 15.3108 24.3652 15.6331 24.6973 15.8518C25.0332 16.0745 25.5215 16.1858 26.1621 16.1858ZM26.3496 10.9534C26.877 10.9534 27.2812 10.8206 27.5625 10.5549C27.8438 10.2893 27.9844 9.90454 27.9844 9.40063C27.9844 8.86157 27.8398 8.45728 27.5508 8.18774C27.2617 7.91821 26.8574 7.78345 26.3379 7.78345C25.834 7.78345 25.4375 7.92798 25.1484 8.21704C24.8633 8.5022 24.7207 8.90454 24.7207 9.42407C24.7207 9.90845 24.8574 10.2854 25.1309 10.5549C25.4043 10.8206 25.8105 10.9534 26.3496 10.9534ZM33.4746 7.30884C34.1895 7.30884 34.7383 7.49634 35.1211 7.87134C35.5039 8.24634 35.6953 8.83423 35.6953 9.63501V13.801H35.1094V9.67017C35.1094 9.03735 34.9648 8.57251 34.6758 8.27563C34.3867 7.97876 33.9668 7.83032 33.416 7.83032C32.7168 7.83032 32.1816 8.0354 31.8105 8.44556C31.4434 8.85181 31.2598 9.46704 31.2598 10.2913V13.801H30.668V7.43188H31.1484L31.2363 8.59204H31.2715C31.3848 8.35376 31.5391 8.13892 31.7344 7.94751C31.9336 7.7522 32.1777 7.5979 32.4668 7.48462C32.7559 7.36743 33.0918 7.30884 33.4746 7.30884ZM40.3008 10.8303V10.2854H51.3398V10.8303H40.3008Z" fill="#1F1F1F"/>
<path d="M65.2627 5.32835L63.1664 5.32835C63.1485 5.66654 62.993 5.98322 62.7355 6.2061C62.478 6.42897 62.14 6.53831 61.7991 6.51023C60.7924 6.51023 60.2273 5.7717 60.2273 4.46673L60.2273 4.38786C60.2273 3.07273 60.824 2.34436 61.7705 2.34436C62.0906 2.31927 62.407 2.42861 62.6413 2.64611C62.8761 2.8636 63.0073 3.16893 63.0037 3.48681L65.1715 3.48681C64.9968 1.57548 63.6712 0.706635 61.7603 0.706635C60.7554 0.657938 59.7767 1.03019 59.0629 1.73251C58.3491 2.43459 57.9662 3.40196 58.0078 4.39742L58.0078 4.47809C58.0078 6.69427 59.2717 8.17072 61.8414 8.17072C63.7422 8.17072 65.119 7.19737 65.2627 5.32835ZM69.3008 8.04883L69.3008 5.19929L71.716 5.19929L71.716 8.04883L73.82 8.04883L73.82 0.817116L71.716 0.817175L71.716 3.57883L69.3002 3.57883L69.3002 0.817175L67.1837 0.817175L67.1837 8.0465L69.3008 8.04889L69.3008 8.04883ZM82.6765 5.08576L82.6765 0.817175L80.5486 0.817175L80.5486 4.99493C80.5486 6.07703 80.2685 6.5419 79.3977 6.5419C78.5036 6.5419 78.2467 6.04656 78.2467 5.02481L78.2467 0.817175L76.1427 0.817175L76.1427 5.11563C76.1415 7.13882 77.3223 8.17072 79.3989 8.17072C81.4236 8.17072 82.6765 7.18901 82.6765 5.08576ZM89.882 8.04883L89.882 6.44092L87.1074 6.44092L87.1074 0.817175L84.9903 0.817175L84.9903 8.0465L89.882 8.04889L89.882 8.04883ZM94.9316 2.49673L95.7333 5.27696L94.1204 5.27696L94.9316 2.49673ZM91.3548 8.04943L93.3187 8.04943L93.7091 6.70442L96.1445 6.70442L96.5349 8.04943L98.7647 8.04943L96.4324 0.820701L93.7091 0.82064L91.3548 8.04937L91.3548 8.04943ZM102.554 8.04943L102.554 5.02541L104.671 8.04943L107.106 8.04943L104.274 4.17515L106.966 0.817175L104.764 0.817175L102.556 3.67981L102.556 0.817175L100.44 0.817175L100.44 8.0465L102.554 8.04949L102.554 8.04943ZM115.725 4.42909L115.725 4.34783C115.725 2.10237 114.074 0.716374 111.833 0.716374C110.814 0.655667 109.816 1.0186 109.079 1.71757C108.342 2.41726 107.932 3.38941 107.949 4.40041L107.949 4.48107C107.95 6.65304 109.43 8.17072 111.804 8.17072C114.175 8.17132 115.725 6.65363 115.725 4.42909ZM110.145 4.46912L110.145 4.38786C110.145 3.07273 110.793 2.3348 111.829 2.3348C112.865 2.3348 113.526 3.09305 113.526 4.3783L113.526 4.45896C113.532 5.75318 112.882 6.5419 111.844 6.5419C110.824 6.5425 110.145 5.78425 110.145 4.46912ZM119.206 8.04943L121.596 8.04943L124.004 0.8207L122.031 0.82064L120.529 5.89479L119.039 0.82064L116.774 0.82064L119.206 8.04937L119.206 8.04943Z" fill="#1F1F1F"/>
<path d="M61.8076 19.2992C64.1502 19.2992 65.357 17.9099 65.357 16.0642V15.1718H61.9496V16.6219H63.3085C63.2679 17.2 62.8826 17.7172 61.8685 17.7172C60.611 17.7172 60.1749 16.8045 60.1749 15.6281V15.547C60.1749 14.2388 60.7935 13.4478 61.8178 13.4478C62.5885 13.4478 63.0245 13.8027 63.126 14.4822H65.1846C65.0426 12.5959 63.5215 11.8151 61.8076 11.8151C59.6273 11.8151 58.0047 13.3058 58.0047 15.5166V15.5977C58.0047 17.7679 59.3433 19.2992 61.8076 19.2992Z" fill="#1F1F1F"/>
<path d="M67.1898 19.1775H72.0169V17.5651H69.2789V11.9266H67.1898V19.1775Z" fill="#1F1F1F"/>
<path d="M76.7951 19.2992C79.1377 19.2992 80.6691 17.778 80.6691 15.547V15.4659C80.6691 13.2145 79.0363 11.8252 76.8256 11.8252C74.6554 11.8252 72.9922 13.3058 72.9922 15.5166V15.5977C72.9922 17.778 74.4526 19.2992 76.7951 19.2992ZM76.8357 17.6665C75.8317 17.6665 75.1624 16.9059 75.1624 15.5876V15.5064C75.1624 14.1881 75.8013 13.4478 76.8256 13.4478C77.8498 13.4478 78.4989 14.2084 78.4989 15.4963V15.5774C78.4989 16.8755 77.86 17.6665 76.8357 17.6665Z" fill="#1F1F1F"/>
<path d="M81.9894 19.1775H85.2548C87.0498 19.1775 87.8915 18.4575 87.8915 17.1594V17.1189C87.8915 16.1149 87.3337 15.5774 86.4413 15.4253C87.2526 15.2123 87.6684 14.6749 87.6684 13.8636V13.823C87.6684 12.6973 86.9382 11.9266 85.2244 11.9266H81.9894V19.1775ZM84.0176 14.8067V13.3058H84.8086C85.4373 13.3058 85.701 13.5289 85.701 14.0258V14.0664C85.701 14.5836 85.4576 14.8067 84.8086 14.8067H84.0176ZM84.0176 17.7882V16.0743H84.8187C85.5489 16.0743 85.843 16.3583 85.843 16.9059V16.9465C85.843 17.4839 85.5388 17.7882 84.8796 17.7882H84.0176Z" fill="#1F1F1F"/>
<path d="M92.3774 13.61L93.1684 16.3988H91.5762L92.3774 13.61ZM88.8483 19.1775H90.7852L91.1706 17.8287H93.574L93.9594 19.1775H96.16L93.858 11.9266H91.1706L88.8483 19.1775Z" fill="#1F1F1F"/>
<path d="M97.6122 19.1775H102.439V17.5651H99.7013V11.9266H97.6122V19.1775Z" fill="#1F1F1F"/>
</svg>
