<svg width="24" height="25" viewBox="0 0 24 25" fill="none" xmlns="http://www.w3.org/2000/svg">
<path fill-rule="evenodd" clip-rule="evenodd" d="M16.1229 15.4265C17.1783 14.0653 17.6757 12.353 17.5139 10.638C17.3521 8.9229 16.5433 7.33392 15.2519 6.19428C13.9606 5.05465 12.2838 4.44996 10.5626 4.50324C8.84146 4.55653 7.20522 5.26377 5.98681 6.4811C4.76733 7.69927 4.05805 9.33679 4.00352 11.06C3.94898 12.7831 4.5533 14.4622 5.69331 15.7551C6.83332 17.048 8.42323 17.8574 10.1391 18.0183C11.8549 18.1793 13.5674 17.6796 14.9278 16.6212L14.9642 16.6593L18.5545 20.2519C18.6331 20.3305 18.7265 20.3929 18.8292 20.4355C18.932 20.4781 19.0421 20.5 19.1533 20.5C19.2645 20.5 19.3746 20.4781 19.4774 20.4355C19.5801 20.3929 19.6735 20.3305 19.7521 20.2519C19.8307 20.1732 19.8931 20.0798 19.9357 19.977C19.9782 19.8742 20.0001 19.7641 20.0001 19.6528C20.0001 19.5416 19.9782 19.4314 19.9357 19.3286C19.8931 19.2258 19.8307 19.1325 19.7521 19.0538L16.161 15.4621C16.1486 15.4499 16.1359 15.438 16.1229 15.4265ZM14.3658 7.67918C14.8437 8.14951 15.2237 8.70983 15.484 9.32783C15.7444 9.94583 15.8798 10.6093 15.8825 11.2799C15.8852 11.9505 15.7552 12.615 15.4999 13.2351C15.2447 13.8552 14.8692 14.4186 14.3952 14.8928C13.9212 15.367 13.358 15.7427 12.7381 15.998C12.1183 16.2534 11.454 16.3835 10.7837 16.3807C10.1133 16.378 9.45015 16.2425 8.8324 15.9821C8.21465 15.7217 7.65455 15.3415 7.18441 14.8635C6.24488 13.9081 5.72076 12.6201 5.72621 11.2799C5.73167 9.93971 6.26626 8.65598 7.21354 7.70832C8.16082 6.76066 9.44404 6.22586 10.7837 6.2204C12.1233 6.21494 13.4109 6.73928 14.3658 7.67918Z" fill="#6F7886"/>
</svg>
