<svg width="36" height="36" viewBox="0 0 36 36" fill="none" xmlns="http://www.w3.org/2000/svg">
<rect width="36" height="36" rx="6" fill="#E7F5FF"/>
<g clip-path="url(#clip0_45_7176)">
<path d="M25.9843 14.704C25.9468 13.8539 25.8094 13.2694 25.6124 12.763C25.4093 12.2254 25.0967 11.7441 24.6872 11.344C24.2871 10.9377 23.8026 10.6219 23.2713 10.422C22.7619 10.225 22.1805 10.0875 21.3303 10.0501C20.4739 10.0094 20.2019 10 18.0297 10C15.8574 10 15.5855 10.0094 14.7321 10.0469C13.882 10.0844 13.2975 10.222 12.7912 10.4188C12.2535 10.6219 11.7722 10.9345 11.3721 11.344C10.9658 11.7441 10.6502 12.2286 10.4501 12.7599C10.2531 13.2694 10.1156 13.8507 10.0782 14.7009C10.0375 15.5574 10.0281 15.8293 10.0281 18.0016C10.0281 20.1739 10.0375 20.4458 10.075 21.2991C10.1125 22.1492 10.2501 22.7337 10.447 23.2401C10.6502 23.7777 10.9658 24.259 11.3721 24.6591C11.7722 25.0654 12.2567 25.3812 12.788 25.5812C13.2975 25.7781 13.8788 25.9156 14.7291 25.9531C15.5823 25.9907 15.8543 26 18.0266 26C20.1989 26 20.4708 25.9907 21.3241 25.9531C22.1743 25.9156 22.7587 25.7781 23.265 25.5812C24.3403 25.1654 25.1905 24.3153 25.6062 23.2401C25.803 22.7306 25.9406 22.1492 25.9781 21.2991C26.0156 20.4458 26.025 20.1739 26.025 18.0016C26.025 15.8293 26.0218 15.5574 25.9843 14.704ZM24.5435 21.2366C24.5091 22.018 24.3778 22.4399 24.2684 22.7212C23.9996 23.4183 23.4464 23.9715 22.7493 24.2403C22.468 24.3497 22.043 24.481 21.2647 24.5153C20.4207 24.5529 20.1676 24.5622 18.0328 24.5622C15.898 24.5622 15.6417 24.5529 14.8009 24.5153C14.0195 24.481 13.5975 24.3497 13.3162 24.2403C12.9693 24.1121 12.6536 23.909 12.3973 23.6433C12.1317 23.3838 11.9285 23.0713 11.8003 22.7244C11.6909 22.4431 11.5596 22.018 11.5253 21.2397C11.4877 20.3958 11.4785 20.1426 11.4785 18.0078C11.4785 15.873 11.4877 15.6167 11.5253 14.776C11.5596 13.9946 11.6909 13.5726 11.8003 13.2913C11.9285 12.9443 12.1317 12.6287 12.4005 12.3723C12.6598 12.1066 12.9724 11.9034 13.3194 11.7754C13.6007 11.666 14.0258 11.5347 14.8041 11.5003C15.648 11.4628 15.9012 11.4534 18.0359 11.4534C20.1739 11.4534 20.427 11.4628 21.2678 11.5003C22.0492 11.5347 22.4712 11.666 22.7525 11.7754C23.0994 11.9034 23.4151 12.1066 23.6714 12.3723C23.937 12.6317 24.1402 12.9443 24.2684 13.2913C24.3778 13.5726 24.5091 13.9976 24.5435 14.776C24.581 15.6199 24.5904 15.873 24.5904 18.0078C24.5904 20.1426 24.581 20.3927 24.5435 21.2366Z" fill="#0B63E5"/>
<path d="M18.0297 13.8914C15.7606 13.8914 13.9195 15.7323 13.9195 18.0015C13.9195 20.2708 15.7606 22.1117 18.0297 22.1117C20.2989 22.1117 22.1399 20.2708 22.1399 18.0015C22.1399 15.7323 20.2989 13.8914 18.0297 13.8914ZM18.0297 20.6677C16.5576 20.6677 15.3635 19.4737 15.3635 18.0015C15.3635 16.5293 16.5576 15.3354 18.0297 15.3354C19.5019 15.3354 20.6959 16.5293 20.6959 18.0015C20.6959 19.4737 19.5019 20.6677 18.0297 20.6677Z" fill="#0B63E5"/>
<path d="M23.262 13.7288C23.262 14.2587 22.8324 14.6884 22.3023 14.6884C21.7724 14.6884 21.3428 14.2587 21.3428 13.7288C21.3428 13.1988 21.7724 12.7693 22.3023 12.7693C22.8324 12.7693 23.262 13.1988 23.262 13.7288Z" fill="#0B63E5"/>
</g>
<defs>
<clipPath id="clip0_45_7176">
<rect width="16" height="16" fill="white" transform="translate(10 10)"/>
</clipPath>
</defs>
</svg>
