<svg width="36" height="36" viewBox="0 0 36 36" fill="none" xmlns="http://www.w3.org/2000/svg">
<rect width="36" height="36" rx="6" fill="#E7F5FF"/>
<g clip-path="url(#clip0_45_7172)">
<path d="M26 13.039C25.405 13.3 24.771 13.473 24.11 13.557C24.79 13.151 25.309 12.513 25.553 11.744C24.919 12.122 24.219 12.389 23.473 12.538C22.871 11.897 22.013 11.5 21.077 11.5C19.261 11.5 17.799 12.974 17.799 14.781C17.799 15.041 17.821 15.291 17.875 15.529C15.148 15.396 12.735 14.089 11.114 12.098C10.831 12.589 10.665 13.151 10.665 13.756C10.665 14.892 11.25 15.899 12.122 16.482C11.595 16.472 11.078 16.319 10.64 16.078C10.64 16.088 10.64 16.101 10.64 16.114C10.64 17.708 11.777 19.032 13.268 19.337C13.001 19.41 12.71 19.445 12.408 19.445C12.198 19.445 11.986 19.433 11.787 19.389C12.212 20.688 13.418 21.643 14.852 21.674C13.736 22.547 12.319 23.073 10.785 23.073C10.516 23.073 10.258 23.061 10 23.028C11.453 23.965 13.175 24.5 15.032 24.5C21.068 24.5 24.368 19.5 24.368 15.166C24.368 15.021 24.363 14.881 24.356 14.742C25.007 14.28 25.554 13.703 26 13.039Z" fill="#0B63E5"/>
</g>
<defs>
<clipPath id="clip0_45_7172">
<rect width="16" height="16" fill="white" transform="translate(10 10)"/>
</clipPath>
</defs>
</svg>
