<?xml version="1.0" standalone="no"?>
<!DOCTYPE svg PUBLIC "-//W3C//DTD SVG 20010904//EN"
 "http://www.w3.org/TR/2001/REC-SVG-20010904/DTD/svg10.dtd">
<svg version="1.0" xmlns="http://www.w3.org/2000/svg"
 width="574.000000pt" height="566.000000pt" viewBox="0 0 574.000000 566.000000"
 preserveAspectRatio="xMidYMid meet">

<g transform="translate(0.000000,566.000000) scale(0.100000,-0.100000)"
fill="currentColor" stroke="none">
<path d="M2691 4772 c-95 -312 -193 -615 -217 -673 -162 -388 -463 -693 -852
-864 -55 -24 -307 -108 -559 -185 -252 -78 -516 -160 -588 -182 l-130 -40 565
-174 c311 -95 597 -185 635 -200 453 -175 789 -517 958 -974 19 -52 108 -335
198 -628 89 -292 165 -532 168 -532 4 0 58 168 120 373 253 824 275 888 369
1050 189 329 498 586 862 719 52 19 337 109 632 199 295 90 531 167 525 170
-7 4 -250 80 -542 169 -619 190 -669 207 -795 270 -296 149 -540 384 -703 680
-68 123 -125 287 -293 837 -93 304 -171 553 -174 553 -3 0 -83 -256 -179 -568z"/>
</g>
</svg>
