<svg width="116" height="31" viewBox="0 0 116 31" fill="none" xmlns="http://www.w3.org/2000/svg">
<path d="M13.9862 3.89442C13.4198 5.75896 12.8356 7.56972 12.6925 7.91634C11.7267 10.2351 9.93221 12.0578 7.61311 13.0797C7.28521 13.2231 5.78286 13.7251 4.28051 14.1853C2.77816 14.6514 1.20427 15.1414 0.775023 15.2729L0 15.512L3.36837 16.5518C5.22246 17.1195 6.92751 17.6574 7.15405 17.747C9.85471 18.7928 11.8578 20.8367 12.8654 23.5677C12.9786 23.8785 13.5092 25.5697 14.0458 27.3207C14.5764 29.0657 15.0295 30.5 15.0474 30.5C15.0712 30.5 15.3931 29.496 15.7628 28.2709C17.2711 23.3466 17.4022 22.9641 17.9626 21.996C19.0894 20.0299 20.9316 18.494 23.1016 17.6992C23.4116 17.5857 25.1107 17.0478 26.8694 16.51C28.6281 15.9721 30.0351 15.512 29.9993 15.494C29.9576 15.4701 28.5089 15.0159 26.7681 14.4841C23.0778 13.3486 22.7797 13.247 22.0285 12.8705C20.2639 11.9801 18.8092 10.5757 17.8374 8.80677C17.432 8.07171 17.0922 7.09163 16.0907 3.80478C15.5362 1.98805 15.0712 0.5 15.0533 0.5C15.0354 0.5 14.5585 2.02988 13.9862 3.89442Z" fill="#0B63E5"/>
<path d="M42.3716 23.5L48.7112 7.24444H51.5443L57.8376 23.5H54.7026L51.2192 14.2576C51.1418 14.0718 51.0334 13.7776 50.8941 13.3751C50.7703 12.9726 50.6309 12.5391 50.4761 12.0747C50.3213 11.5947 50.182 11.1535 50.0581 10.751C49.9343 10.333 49.8414 10.0311 49.7794 9.84533L50.36 9.82211C50.2671 10.1317 50.1587 10.4801 50.0349 10.8671C49.911 11.2541 49.7794 11.6567 49.6401 12.0747C49.5008 12.4927 49.3614 12.8952 49.2221 13.2822C49.0983 13.6693 48.9821 14.0176 48.8738 14.3272L45.3904 23.5H42.3716ZM45.2511 19.7844L46.2961 17.1603H53.704L54.8187 19.7844H45.2511ZM59.5616 23.5V6.31556H62.4412V23.5H59.5616ZM65.4492 23.5V11.2619H68.2359L68.2823 13.7699L67.7482 14.0486C67.903 13.4912 68.2049 12.9881 68.6539 12.5391C69.1028 12.0747 69.6369 11.7031 70.2562 11.4244C70.8754 11.1458 71.5102 11.0064 72.1604 11.0064C73.0893 11.0064 73.8634 11.1922 74.4826 11.5638C75.1174 11.9353 75.5896 12.4927 75.8992 13.2358C76.2243 13.9789 76.3869 14.9078 76.3869 16.0224V23.5H73.5305V16.2314C73.5305 15.6122 73.4454 15.1013 73.2751 14.6988C73.1048 14.2808 72.8416 13.9789 72.4855 13.7931C72.1294 13.5919 71.696 13.499 71.1851 13.5144C70.7671 13.5144 70.38 13.5841 70.024 13.7234C69.6834 13.8473 69.3815 14.0331 69.1183 14.2808C68.8706 14.513 68.6693 14.7839 68.5145 15.0936C68.3752 15.4032 68.3055 15.7438 68.3055 16.1153V23.5H66.889C66.6103 23.5 66.3471 23.5 66.0994 23.5C65.8672 23.5 65.6504 23.5 65.4492 23.5ZM83.8731 23.7322C82.8668 23.7322 81.9534 23.4536 81.1329 22.8962C80.3124 22.3389 79.6544 21.5803 79.159 20.6204C78.6636 19.6606 78.4159 18.5691 78.4159 17.3461C78.4159 16.1231 78.6636 15.0316 79.159 14.0718C79.6544 13.1119 80.3279 12.3611 81.1793 11.8192C82.0308 11.2774 82.9907 11.0064 84.0589 11.0064C84.6782 11.0064 85.2432 11.0993 85.7541 11.2851C86.265 11.4554 86.714 11.7031 87.101 12.0282C87.488 12.3533 87.8054 12.7249 88.0531 13.1429C88.3163 13.5609 88.4943 14.0099 88.5872 14.4898L87.9602 14.3272V11.2619H90.8398V23.5H87.937V20.574L88.6104 20.4579C88.5021 20.8759 88.3008 21.2861 88.0067 21.6887C87.728 22.0757 87.3719 22.424 86.9384 22.7337C86.5204 23.0278 86.0483 23.2678 85.5219 23.4536C85.011 23.6393 84.4614 23.7322 83.8731 23.7322ZM84.6627 21.201C85.3284 21.201 85.9167 21.0384 86.4276 20.7133C86.9384 20.3882 87.3332 19.9393 87.6119 19.3664C87.906 18.7781 88.0531 18.1047 88.0531 17.3461C88.0531 16.603 87.906 15.945 87.6119 15.3722C87.3332 14.7994 86.9384 14.3504 86.4276 14.0253C85.9167 13.7002 85.3284 13.5377 84.6627 13.5377C83.997 13.5377 83.4087 13.7002 82.8978 14.0253C82.4024 14.3504 82.0153 14.7994 81.7367 15.3722C81.458 15.945 81.3187 16.603 81.3187 17.3461C81.3187 18.1047 81.458 18.7781 81.7367 19.3664C82.0153 19.9393 82.4024 20.3882 82.8978 20.7133C83.4087 21.0384 83.997 21.201 84.6627 21.201ZM94.1281 23.5V11.2619H96.9844V23.5H94.1281ZM95.5214 8.661C94.9486 8.661 94.4996 8.52167 94.1745 8.243C93.8649 7.94885 93.7101 7.53859 93.7101 7.01222C93.7101 6.51681 93.8726 6.1143 94.1977 5.80467C94.5229 5.49504 94.9641 5.34022 95.5214 5.34022C96.1097 5.34022 96.5587 5.4873 96.8683 5.78144C97.1934 6.06011 97.356 6.47037 97.356 7.01222C97.356 7.49215 97.1934 7.88693 96.8683 8.19656C96.5432 8.50618 96.0942 8.661 95.5214 8.661ZM100.258 23.5V11.2619H103.068L103.114 15.1632L102.72 14.2808C102.89 13.6615 103.184 13.1042 103.602 12.6088C104.02 12.1134 104.5 11.7263 105.042 11.4477C105.599 11.1535 106.18 11.0064 106.783 11.0064C107.047 11.0064 107.294 11.0297 107.527 11.0761C107.774 11.1226 107.976 11.1767 108.13 11.2387L107.364 14.3737C107.194 14.2808 106.985 14.2034 106.737 14.1414C106.489 14.0795 106.242 14.0486 105.994 14.0486C105.607 14.0486 105.235 14.126 104.879 14.2808C104.539 14.4201 104.237 14.6214 103.974 14.8846C103.71 15.1477 103.501 15.4574 103.347 15.8134C103.207 16.154 103.138 16.5411 103.138 16.9746V23.5H100.258Z" fill="#061C3D"/>
</svg>
